<?xml version="1.0" encoding="utf-8"?>
<!-- Generator: Adobe Illustrator 16.0.4, SVG Export Plug-In . SVG Version: 6.00 Build 0)  -->
<!DOCTYPE svg PUBLIC "-//W3C//DTD SVG 1.1//EN" "http://www.w3.org/Graphics/SVG/1.1/DTD/svg11.dtd">
<svg version="1.1" id="Layer_1" xmlns="http://www.w3.org/2000/svg" xmlns:xlink="http://www.w3.org/1999/xlink" x="0px" y="0px"
	 width="22.9px" height="28.1px" viewBox="0 0 22.9 28.1" enable-background="new 0 0 22.9 28.1" xml:space="preserve">
<path fill="#47C3D3" d="M21.7,11.7L19,13c1.1,2.3,1.1,4.9,0.1,7.1c-1.9,4.2-6.9,6.1-11.2,4.2c-4.2-1.9-6.1-6.9-4.2-11.2
	c1.5-3.2,4.7-4.9,8.4-4.6l-4.1,4l2.1,2.1L18,7L8.9,0L7.1,2.4l4.1,3.2C6.8,5.6,2.8,7.9,1,12c-2.6,5.7,0,12.5,5.7,15.1
	c1.5,0.7,3.1,1,4.7,1c4.4,0,8.5-2.5,10.4-6.7C23.2,18.3,23.2,14.8,21.7,11.7z"/>
</svg>
